<?xml version="1.0" encoding="utf-8"?>
<!-- Generator: Adobe Illustrator 23.0.3, SVG Export Plug-In . SVG Version: 6.00 Build 0)  -->
<svg version="1.1" id="Layer_1" xmlns="http://www.w3.org/2000/svg" xmlns:xlink="http://www.w3.org/1999/xlink" x="0px" y="0px"
	 viewBox="0 0 595.3 841.9" style="enable-background:new 0 0 595.3 841.9;" xml:space="preserve">
<style type="text/css">
	.st0{fill:#D0F1ED;}
	.st1{fill:#4285F4;stroke:#4285F4;stroke-width:0.7158;stroke-miterlimit:10;}
	.st2{clip-path:url(#SVGID_2_);fill:#DB4437;stroke:#DB4437;stroke-width:0.7158;stroke-miterlimit:10;}
	.st3{clip-path:url(#SVGID_2_);fill:#FF4949;}
	.st4{fill:#0F9D58;}
	.st5{fill:#FFFFFF;}
	.st6{fill:#F4B400;stroke:#F4B400;stroke-width:0.7162;stroke-miterlimit:10;}
	.st7{fill:#DB4437;stroke:#DB4437;stroke-width:0.7158;stroke-miterlimit:10;}
	.st8{opacity:0.2;fill:#231F20;stroke:#231F20;stroke-width:0.7162;stroke-miterlimit:10;}
	.st9{fill:#FF4949;}
	.st10{clip-path:url(#SVGID_4_);fill:#DB4437;stroke:#DB4437;stroke-width:0.7158;stroke-miterlimit:10;}
	.st11{clip-path:url(#SVGID_4_);fill:#FF4949;}
	.st12{clip-path:url(#SVGID_4_);fill:#FFB3B3;}
	.st13{fill:#FFCFA9;}
	.st14{fill:#EC9545;}
	.st15{fill:#084F2C;}
	.st16{fill:#0F9D58;stroke:#9FD8BC;stroke-width:0.7158;stroke-miterlimit:10;}
	.st17{fill:#0F9D58;stroke:#042716;stroke-width:0.7158;stroke-miterlimit:10;}
	.st18{fill:none;stroke:#99D7B9;stroke-width:0.7158;stroke-miterlimit:10;}
	.st19{fill:#FFB1A4;}
	.st20{opacity:0.2;fill:#231F20;stroke:#231F20;stroke-width:0.7158;stroke-miterlimit:10;}
	.st21{fill:#C2EAE8;}
	.st22{fill:#ADDDDB;}
	.st23{fill:#50506C;}
	.st24{fill:#807D94;}
	.st25{fill:none;}
	.st26{fill:#5A6E7F;}
	.st27{fill:#97D5C9;}
	.st28{fill:#5CBFAB;}
</style>
<ellipse class="st0" cx="317.2" cy="563.4" rx="123.1" ry="26.6"/>
<g>
	<path class="st1" d="M268.4,437c-0.6,3.5-4.1,5.9-7.5,6.1c-3.3,0.2-6.6-2.1-7.2-5.4c-0.5-2.6,0.3-6.2,2.6-7.9c0.6-0.6,1.2-1,2-1.3
		c1.7-0.7,3.7-0.5,5.3,0.3C266.6,430.1,268.9,433.6,268.4,437z"/>
	<path class="st1" d="M251.4,424.3c0.3,2.7-0.4,5.5-2,7.6c-1.7,2.3-4.4,4.1-7.1,4.9c-5.2,1.7-10.9-1.2-13.3-6
		c-1.7-3.5-1.8-7.6-0.3-11.1c0.4-1.1,1-2.1,1.7-2.9c0.1-0.1,0.1-0.2,0.2-0.3c0.1-0.1,0.1-0.1,0.2-0.2c0.5-0.5,1-0.9,1.5-1.3
		c2.6-1.8,6-2.2,9.1-1.5C246.5,414.6,250.8,418.9,251.4,424.3z"/>
	<path class="st1" d="M327.4,346.6c-3.2,6.6-9.9,11.4-17.2,12.3c1.6,3.2,2.1,6.8,1.6,10.3c-1.1,7.7-6.3,14.1-13.6,16.7
		c-7.6,2.7-16.3,1.2-23.2-2.8c-0.3,3-1.4,5.9-3.2,8.3c-3.9,5.5-10.2,8.9-17,9c-6.8,0.1-13.4-2.7-18.5-7.1c-2.5,4-5.8,7.5-9.8,10.1
		c-7.4,4.9-16.9,6.6-25.3,3.3c-7.7-3.1-14.1-9.7-15.6-18c-5.7,0-11.4-1.7-16.2-4.8c-9.1-5.7-15-15.7-14.5-26.6
		c0.4-9.9,5.6-19.6,13.9-25.1c-2.8-2.7-4.7-6.3-5.4-10.1c-1.5-8.1,1.4-16.4,7.5-21.8c6.3-5.6,14.8-8.1,23.1-8.2
		c-2.1-4-2.9-8.6-2.5-13c0.8-9.3,6.7-17.7,15.9-20.4c8.3-2.5,17.9-0.3,24,5.8c0.8,0.7,1.5,1.4,2.1,2.3c2.7-4.1,6.5-7.4,10.9-9.7
		c9.3-4.9,20.8-5,29.8,0.9c8.5,5.6,14.1,15.5,14,25.7c3.6-1.1,7.3-1.3,11-0.7c7.5,1.3,14.2,6.2,17.3,13.2c2.9,6.7,2.6,14.7-0.9,21.1
		c3.7,1.4,6.9,4,9.4,7.2C329.8,330.9,331,339.4,327.4,346.6z"/>
</g>
<g>
	<g>
		<defs>
			<path id="SVGID_1_" d="M291.5,338.3c-3-20.4-6.1-40.7-9.1-61c13.4,15.1,27.9,29.2,43.3,42.2C317.6,330.1,304.9,337.1,291.5,338.3
				z"/>
		</defs>
		<clipPath id="SVGID_2_">
			<use xlink:href="#SVGID_1_"  style="overflow:visible;"/>
		</clipPath>
		<path class="st2" d="M291.5,338.3c-3-20.4-6.1-40.7-9.1-61c13.4,15.1,27.9,29.2,43.3,42.2C317.6,330.1,304.9,337.1,291.5,338.3z"
			/>
		<path class="st3" d="M327.4,320.1c-10.3,8.9-23.9,13.3-37.4,12.1c-1.5-0.1-1.6,2.2-0.1,2.4c14.1,1.2,28.4-3.5,39.1-12.8
			C330.2,320.8,328.5,319.1,327.4,320.1z"/>
		<path class="st3" d="M317.9,311.2c-9.4,5.1-20.1,7.4-30.7,6.6c-1.5-0.1-1.6,2.3-0.1,2.4c11,0.8,22.2-1.6,31.9-6.9
			C320.4,312.6,319.3,310.5,317.9,311.2z"/>
		<path class="st3" d="M308.3,302.2c-7,3.8-15.2,5.1-23,3.7c-1.5-0.3-2.2,2-0.7,2.3c8.4,1.5,17.2,0.2,24.8-3.9
			C310.7,303.6,309.6,301.5,308.3,302.2z"/>
		<path class="st3" d="M299.9,294.8c-0.5,0-0.9,0.3-1.1,0.7c-0.1,0-0.3,0.1-0.3,0.1c-0.3,0.1-0.5,0.1-0.8,0.2
			c-0.5,0.1-1.1,0.3-1.6,0.4c-1.1,0.2-2.3,0.4-3.4,0.5c-2.2,0.2-4.5,0.2-6.7,0.1c-1.5-0.1-1.6,2.3-0.1,2.4c2.7,0.2,5.4,0.1,8.1-0.2
			c1.3-0.2,2.6-0.4,3.9-0.7c1.2-0.3,3.2-0.5,3.2-2.1C301,295.4,300.5,294.9,299.9,294.8z"/>
		<path class="st3" d="M294,288.9c-0.8,0.2-1.5,0.4-2.3,0.5c-0.2,0-0.4,0.1-0.6,0.1c-0.1,0-0.3,0-0.1,0c-0.1,0-0.2,0-0.3,0
			c-0.4,0-0.8,0-1.2,0c-0.8,0-1.5,0-2.3-0.1c-0.2,0-0.4,0-0.6-0.1c0,0-0.4-0.1-0.2,0c-0.1,0-0.2,0-0.3-0.1c-0.4-0.1-0.8-0.2-1.2-0.3
			c-0.6-0.2-1.3,0.2-1.5,0.8c-0.2,0.6,0.2,1.3,0.8,1.5c3.3,0.9,6.9,0.8,10.2-0.1c0.6-0.2,1.1-0.8,0.9-1.4
			C295.3,289.2,294.7,288.8,294,288.9z"/>
		<path class="st3" d="M287.1,282c-0.1,0.1-0.2,0.1-0.3,0.1c-0.5,0.2-1,0.3-1.5,0.3c-0.5,0-1,0-1.5,0c0,0,0.1,0,0.1,0
			c-0.3-0.1-0.6-0.1-0.9,0.1c-0.3,0.1-0.5,0.4-0.6,0.7c-0.1,0.3-0.1,0.6,0.1,0.9c0.2,0.3,0.4,0.5,0.7,0.6c0.9,0.2,1.7,0.2,2.7,0.1
			c0.8-0.1,1.6-0.4,2.3-0.7c0.6-0.3,0.8-1.1,0.5-1.6C288.4,281.9,287.8,281.7,287.1,282z"/>
	</g>
	<path class="st4" d="M295.9,271.7c0.4,0.9-0.4,1.8-1,2.5c-0.7,0.8-1.6,1.5-2.6,2c-1.3,0.7-2.8,1.1-4.2,1.2c1.4,1,2.7,2,3.8,3.2
		c0.9,1,3.6,3.9,1.7,5.1c-0.8,0.5-2.1,0.2-2.9-0.1c-0.9-0.3-1.8-0.8-2.7-1.3c-1.7-1-3.3-2.1-4.8-3.4c-0.1,1.6-0.1,3.2-0.2,4.8
		c-0.1,1-0.2,1.9-0.4,2.8c-0.2,1-0.5,2.2-1.5,2.6c-1.2,0.5-1.9-0.5-2.3-1.5c-0.4-1-0.6-2-0.8-3c-0.3-1.7-0.4-3.5-0.3-5.2
		c-0.9,0.4-1.8,0.8-2.8,0.9c-1,0.2-3.4,0.6-3.6-0.8c-0.1-0.7,0.4-1.2,0.8-1.7c0.5-0.6,1.1-1.1,1.8-1.5c0.9-0.6,1.8-1,2.8-1.3
		c-1.2-0.9-2.4-1.9-3.4-2.9c-1-1-2.7-3.2-1-4.3c1.3-0.9,3.5-0.3,4.8,0.3c0.8,0.3,1.5,0.8,2.2,1.3c0.4,0.3,0.8,0.7,1.2,1
		c0.2-2,0.3-4,0.7-5.9c0.2-1.1,0.5-2.1,1.2-3c0.6-0.7,1.5-1.2,2.3-0.7c0.8,0.5,1.1,1.4,1.2,2.2c0.2,1,0.3,2.1,0.3,3.2
		c0,1.6-0.2,3.2-0.6,4.7c1.5-0.5,3.1-1.1,4.6-1.6c1-0.3,1.9-0.5,2.9-0.6C294.2,270.7,295.5,270.7,295.9,271.7z"/>
</g>
<g>
	
		<rect x="180.4" y="349.5" transform="matrix(0.278 -0.9606 0.9606 0.278 -209.7117 452.9674)" class="st5" width="32.2" height="32.9"/>
	
		<rect x="181.9" y="351.3" transform="matrix(0.278 -0.9606 0.9606 0.278 -209.5415 452.7719)" class="st6" width="29" height="29"/>
	<path class="st4" d="M185,353c4.4,3.1,6.9,7.9,7.8,13.2c0.5,3.2,0.4,6.3,0.6,9.5c0.1,0.8,0.3,2.9,0.8,4.5l-6.2-1.8
		c-0.2-1-0.3-1.9-0.3-2.8c-0.4-5.9-0.1-12.4-4.4-16.7L185,353z"/>
	<path class="st4" d="M194.9,350.2l8.2,2.4c0.4,1,0.8,2,1.1,3.1c1.2,4.2,1.5,8.6,2.2,12.9c0.3,1.9,0.7,3.8,1.5,5.6
		c0.2,0.4,0.4,0.8,0.8,1.3l-1.8,6.4c-4.5-3.3-5.8-10.4-6.5-15.6C199.6,360.5,198.6,354.3,194.9,350.2z"/>
</g>
<g>
	
		<rect x="203.4" y="272.4" transform="matrix(0.8423 -0.5391 0.5391 0.8423 -121.9458 165.205)" class="st5" width="35.9" height="37.1"/>
	
		<rect x="205.2" y="274.4" transform="matrix(0.8423 -0.5391 0.5391 0.8423 -121.7532 165.1653)" class="st6" width="32.4" height="32.4"/>
	<path class="st4" d="M221.1,271.5c1.4,5.8,0,11.8-3.2,16.8c-1.9,3-4.3,5.6-6.4,8.4c-0.5,0.7-1.9,2.6-2.6,4.4l-3.9-6.1
		c0.6-0.9,1.2-1.8,1.8-2.6c4-5.2,9-10.5,8.5-17.2L221.1,271.5z"/>
	<path class="st4" d="M231.5,276.5l5.1,8c-0.4,1.2-0.8,2.3-1.4,3.4c-2.1,4.4-5,8.3-7.6,12.4c-1.1,1.8-2.3,3.7-2.8,5.8
		c-0.1,0.4-0.3,1-0.4,1.7l-6.3,4c-1.3-6,2.8-12.9,6-17.9C227.9,288.5,231.6,282.6,231.5,276.5z"/>
</g>
<g>
	
		<rect x="263.5" y="291.9" transform="matrix(0.9386 0.3449 -0.3449 0.9386 123.5949 -77.4856)" class="st5" width="32.2" height="33.4"/>
	
		<rect x="265.3" y="293.9" transform="matrix(0.3449 -0.9386 0.9386 0.3449 -106.1157 464.7128)" class="st6" width="29" height="29"/>
	<path class="st4" d="M293.4,297.9c-3.4,4.1-8.4,6.4-13.7,6.9c-3.2,0.3-6.3,0-9.5,0c-0.8,0-2.9,0.1-4.6,0.5l2.2-6.1
		c1-0.1,1.9-0.1,2.8-0.1c5.9,0,12.4,0.8,16.9-3.3L293.4,297.9z"/>
	<path class="st4" d="M295.5,308l-2.9,8c-1,0.4-2.1,0.7-3.2,0.9c-4.3,0.9-8.7,0.9-13,1.3c-1.9,0.2-3.9,0.4-5.7,1.1
		c-0.4,0.1-0.9,0.4-1.4,0.7l-6.2-2.3c3.6-4.2,10.7-5,16-5.4C284.9,311.9,291.1,311.3,295.5,308z"/>
</g>
<path class="st7" d="M268.4,275c-0.1,0.9-0.5,1.8-1.1,2.6c-0.1,0.1-0.2,0.3-0.3,0.4c-4,5.3-15,10.1-15,10.1
	c-11.9-10.2-10.5-17.7-10.5-17.7l0,0c0-0.2,0-0.3,0.1-0.5c0.7-3.9,4.5-6.5,8.5-5.8c2.7,0.5,4.8,2.4,5.6,4.8c1.6-2,4.2-3,6.9-2.5
	C266.6,267.2,269.2,271,268.4,275z"/>
<path class="st7" d="M203.8,337.1c0.3,0.7,0.4,1.5,0.4,2.4c0,0.1,0,0.3,0,0.4c-0.5,5.7-6.4,14.1-6.4,14.1
	c-13.3-2.1-15.7-8.1-15.7-8.1l0,0c-0.1-0.1-0.1-0.2-0.2-0.4c-1.2-3.2,0.4-6.8,3.6-8.1c2.2-0.8,4.6-0.4,6.3,1c0.3-2.2,1.7-4.1,3.9-5
	C198.9,332.3,202.6,333.9,203.8,337.1z"/>
<g>
	<path class="st7" d="M208.7,303.2v16.6c0,2.3-1.9,4.2-4.2,4.2l0.4,7.2l-11.5-7.2h-15.7c-2.3,0-4.2-1.9-4.2-4.2v-16.6
		c0-2.3,1.9-4.2,4.2-4.2h26.8C206.8,299,208.7,300.9,208.7,303.2z"/>
	<path class="st5" d="M183.7,310.9c0,1.9-1.6,3.5-3.5,3.5s-3.5-1.6-3.5-3.5c0-1.9,1.6-3.5,3.5-3.5S183.7,308.9,183.7,310.9z"/>
	<path class="st5" d="M194.1,310.9c0,1.9-1.6,3.5-3.5,3.5c-1.9,0-3.5-1.6-3.5-3.5c0-1.9,1.6-3.5,3.5-3.5
		C192.5,307.4,194.1,308.9,194.1,310.9z"/>
	<path class="st5" d="M204.9,310.9c0,1.9-1.6,3.5-3.5,3.5c-1.9,0-3.5-1.6-3.5-3.5c0-1.9,1.6-3.5,3.5-3.5
		C203.4,307.4,204.9,308.9,204.9,310.9z"/>
</g>
<g>
	<path class="st6" d="M417.1,433.3c-9.7,5-22.1,3.9-31.8-0.5c-4.7-2.2-9-5.4-11.7-9.9c-2.5-4-3.7-8.9-2.9-13.6
		c-7.3-1.1-14.5-2.7-21.2-5.7c-4.6-2.1-9-4.8-12.6-8.4c-0.7-0.6-1.3-1.3-1.9-2c-0.3-0.4-0.7-0.8-1-1.2c-0.1-0.1-0.1-0.1-0.2-0.2
		c-4.3-5.5-6.8-12.4-7.3-19.4c-0.7-7.9,0-15.8,3.5-22.8c1.7-4.4,5.1-8.3,8.4-11.7c7.2-7.6,19-10.3,29.2-9c5,0.7,9.9,2.4,13.9,5.6
		c3.7,3,6.4,7,8.9,11c2.5,4.1,4.9,8.3,8.2,11.8c3.3,3.5,7.6,5.6,11.9,7.6c4.2,1.9,8.5,3.9,11.8,7.1c3.3,3.3,5,7.8,5.1,12.5
		c0,2.4-0.4,4.9-1.2,7.1c-0.4,1.1-0.8,2.2-1.4,3.2c-0.6,1.1-1.5,2.1-2,3.2c-0.2,0.4-0.2,0.8,0,1.1c0.2,0.4,0.6,0.6,1,0.9
		c0.4,0.3,0.8,0.7,1.2,1.1c0.8,0.8,1.5,1.6,2.1,2.5c1.3,1.9,2.1,4.1,2.6,6.4C431.3,419.9,425.5,428.9,417.1,433.3z"/>
	<path class="st8" d="M417.1,433.3c-9.7,5-22.1,3.9-31.8-0.5c-4.7-2.2-9-5.4-11.7-9.9c-2.5-4-3.7-8.9-2.9-13.6
		c-7.3-1.1-14.5-2.7-21.2-5.7c-4.6-2.1-9-4.8-12.6-8.4c-0.6-4-0.8-8-0.2-11.9c0.3-4.3,1.3-8.9,3.7-12.4c2.8-4,7.5-6.1,12.2-6.4
		c5-0.4,10,1.1,14.2,4c3.8,2.7,6.9,6.3,10,9.8c3.4,3.8,7,7.3,11.4,10.1c4.5,2.9,9.6,4.9,14.7,6.4c5.2,1.5,10.6,2.6,15.9,3.8
		c1.2,0.3,2.5,0.6,3.8,0.9c0.2,0.4,0.6,0.6,1,0.9c0.4,0.3,0.8,0.7,1.2,1.1c0.8,0.8,1.5,1.6,2.1,2.5c1.3,1.9,2.1,4.1,2.6,6.4
		C431.3,419.9,425.5,428.9,417.1,433.3z"/>
	<path class="st8" d="M369.4,363.5c-4.1-3-7.8-6.6-10.9-10.6c-3.2-4-5.8-8.4-7.8-13.1c-1.1-2.7-2.1-5.4-2.8-8.2
		c-0.1-0.4-0.8-0.3-0.7,0.2c1.3,5,3.3,9.8,5.9,14.3c2.6,4.5,5.8,8.6,9.4,12.3c2.1,2.1,4.3,3.9,6.6,5.7
		C369.5,364.4,369.8,363.8,369.4,363.5z"/>
	<path class="st8" d="M372.2,362.4c-5.3-8-9.3-17-11.7-26.3c-0.7-2.6-1.2-5.3-1.7-8c-0.1-0.4-0.7-0.3-0.7,0.2
		c1.5,9.6,4.6,18.9,9.2,27.5c1.3,2.4,2.7,4.7,4.2,7C371.9,363.1,372.5,362.8,372.2,362.4z"/>
	<path class="st8" d="M374.3,362.4c-2.3-8.5-3.4-17.2-3.3-26c0-2.5,0.2-4.9,0.4-7.3c0-0.4-0.7-0.4-0.7,0c-0.8,8.7-0.4,17.6,1.2,26.2
		c0.5,2.5,1,4.9,1.7,7.3C373.7,363,374.4,362.9,374.3,362.4z"/>
	<g>
		<path class="st9" d="M284.4,465.1c0-0.2-0.1-0.4-0.3-0.6l-0.1-0.1c0.4-0.5,0.6-1.1,0.5-1.6c-0.1-0.6-0.4-1-0.8-1.4l0.5-0.2
			c4.9,0.6,9.8,1.5,14.7,2.7c0.3-1.1,0.2-2.3,0.2-3.4c0.1-1.1,0.5-2.4,1.6-2.9c1.9-0.8,3.6,1.5,5.6,1.8c3-9.3,6.1-18.5,9.1-27.8
			c2.2,0.8,4.5,1.1,6.8,1.3c0.7,0.1,1.5,0.2,2.2,0.3c-1.4,7.8,0.4,16.1,4.9,22.6c0.6,0.9,1.4,2.1,1,3.1c-0.3,0.9-1.3,1.3-1.9,2
			c-1.8,1.7-1.7,4.6-0.7,6.9c1.1,2.2,2.9,4,4.3,6c0.3,0.4,0.6,0.9,0.6,1.4c0,0.8-0.5,1.4-0.9,2.1c-1.3,2.4,0.2,5.8,2.9,6.4
			c-1.8,0.9-3.7,1.9-4.7,3.6c-1.1,1.9-1,4.3-1,6.5c-0.1,5.3-1.8,10.6-4.7,15c-2.6-0.5-5.3-0.9-7.9-1.4c1-7.1,2-14.1,3-21.2
			c0,0,0-0.1,0-0.1c-2.6,2.5-5.3,4.8-8.1,7.1c-0.8,0.6-1.6,1.3-2.6,1.4c-1,0.2-2-0.2-3-0.5c-10.7-4-20.6-10-29.1-17.7
			c0.1,0,0.2,0,0.4-0.1c3.2-0.6,6.5-2.4,7.7-5.4c0.3-0.6,0.4-1.3,0.3-2c-0.1-0.6-0.5-1.1-1-1.3c0,0-0.1,0-0.1,0l0,0
			C284.3,467,284.6,466,284.4,465.1z"/>
		<g>
			<defs>
				<path id="SVGID_3_" d="M408.3,532c-3.4,8.3-7.7,16.4-8.5,25.3c-0.3-0.6-0.6-1.2-0.9-1.9c-3.4-7.2-6.8-14.5-10.2-21.7
					c-2.6-5.4-5.1-10.9-6.9-16.6c-0.1-0.3-0.2-0.6-0.3-0.9c-0.1-0.2-0.1-0.4-0.2-0.6c-2.4-8.4-2.9-17.1-4-25.8c-0.2-2-0.5-4-0.8-6
					c-2.3-15.3-6.2-30.3-11.7-44.7c-0.2,0-0.5,0-0.7,0.1c-0.8,0.2-1.4,0.9-2.2,1.1c-1.8,0.6-3.5-1.1-4.6-2.6c-1.2,3-6,3.4-7.8,0.8
					c-0.4-0.6-0.7-1.3-1.2-1.8c-0.6-0.5-1.5-0.7-2.3-0.8c-7.2-0.9-14.5-1.8-21.7-2.7c-0.7-0.1-1.5-0.2-2.2-0.3
					c-2.3-0.3-4.6-0.6-6.8-1.3c-0.8-0.3-1.5-0.6-2.3-1c-3.8-2.2-6.2-6.1-8.4-9.9c-8.7-14.4-18.9-27.9-30.4-40.2l-0.2,0.2
					c-1.3,0.7-2.8,1.1-4.2,1.1c-0.4,0-0.8-0.1-1.1-0.3c-0.4-0.4-0.3-1-0.3-1.5c0.4-2.1,1.1-4.1,2.3-5.9c-1.1,0.6-2.3,1.1-3.5,1.5
					c-0.6,0.2-1.3,0.2-1.6-0.3c-0.3-0.4-0.1-0.9,0-1.3c1.1-3.1,3.2-5.7,5.4-8.1c0.1-0.1,0.2-0.2,0.3-0.3c2.4-2.6,4.9-5.1,7.5-7.5
					c0.9-0.8,1.8-1.6,2.8-2.4l0.2,0.3c0.7-0.8,1.9-1.1,2.8-0.7c0.9,0.4,1.6,1.4,1.5,2.4c-0.1,0.9-0.5,2.2,0.4,2.5c0.3,0.1,0.7,0,1,0
					c1.2-0.1,2.4,0.7,3.1,1.8c0.7,1,1.1,2.3,1.6,3.4c1,1.9,2.5,3.4,3.9,4.9c10.1,10.3,19.9,20.8,29.5,31.7c0.5-0.9,0.5-1.9,0.7-2.8
					c0.2-0.9,0.7-2,1.7-2.2c1-0.2,2,0.6,2.6,1.5c0.6,0.9,0.9,2,1.7,2.7c0.3-0.5,0.8-0.8,1.3-1.1c0.9-0.5,2-0.5,3-0.1
					c1.3,0.6,2.2,2,2.1,3.4c1.8-0.1,3.6-0.1,5.3-0.2c1.7-0.1,3.4-0.1,5.1-0.2c7.9-0.3,15.8-0.6,23.7-0.8c1.3,0,2.7-0.1,4-0.1
					c3.4-0.1,6.9-0.2,10.2,0.6c3.1,0.8,5.9,2.5,8.3,4.7c3.1,2.9,5.4,6.7,6.7,10.7c2.3,7.1,2,14.8,0.9,22.1c-1.1,7.4-3,14.6-3.8,22
					c-0.1,0.6-0.1,1.2,0.2,1.7c0.3,0.6,0.9,0.9,1.5,1.1c2.7,1.2,6.2,3,5.5,5.8c-0.5,2-3.3,3.5-2.5,5.5c0.3,0.8,1.2,1.3,1.7,1.9
					c2,2.4-0.1,5.8-0.9,8.8c-1.7,6.6,3.8,12.5,6.2,18.9C414.2,514.3,411.7,523.7,408.3,532z"/>
			</defs>
			<clipPath id="SVGID_4_">
				<use xlink:href="#SVGID_3_"  style="overflow:visible;"/>
			</clipPath>
			<path class="st10" d="M408.3,532c-3.4,8.3-7.7,16.4-8.5,25.3c-0.3-0.6-0.6-1.2-0.9-1.9c-3.4-7.2-6.8-14.5-10.2-21.7
				c-2.6-5.4-5.1-10.9-6.9-16.6c-0.1-0.3-0.2-0.6-0.3-0.9c-0.1-0.2-0.1-0.4-0.2-0.6c-2.4-8.4-2.9-17.1-4-25.8c-0.2-2-0.5-4-0.8-6
				c-2.3-15.3-6.2-30.3-11.7-44.7c-0.2,0-0.5,0-0.7,0.1c-0.8,0.2-1.4,0.9-2.2,1.1c-1.8,0.6-3.5-1.1-4.6-2.6c-1.2,3-6,3.4-7.8,0.8
				c-0.4-0.6-0.7-1.3-1.2-1.8c-0.6-0.5-1.5-0.7-2.3-0.8c-7.2-0.9-14.5-1.8-21.7-2.7c-0.7-0.1-1.5-0.2-2.2-0.3
				c-2.3-0.3-4.6-0.6-6.8-1.3c-0.8-0.3-1.5-0.6-2.3-1c-3.8-2.2-6.2-6.1-8.4-9.9c-8.7-14.4-18.9-27.9-30.4-40.2l-0.2,0.2
				c-1.3,0.7-2.8,1.1-4.2,1.1c-0.4,0-0.8-0.1-1.1-0.3c-0.4-0.4-0.3-1-0.3-1.5c0.4-2.1,1.1-4.1,2.3-5.9c-1.1,0.6-2.3,1.1-3.5,1.5
				c-0.6,0.2-1.3,0.2-1.6-0.3c-0.3-0.4-0.1-0.9,0-1.3c1.1-3.1,3.2-5.7,5.4-8.1c0.1-0.1,0.2-0.2,0.3-0.3c2.4-2.6,4.9-5.1,7.5-7.5
				c0.9-0.8,1.8-1.6,2.8-2.4l0.2,0.3c0.7-0.8,1.9-1.1,2.8-0.7c0.9,0.4,1.6,1.4,1.5,2.4c-0.1,0.9-0.5,2.2,0.4,2.5c0.3,0.1,0.7,0,1,0
				c1.2-0.1,2.4,0.7,3.1,1.8c0.7,1,1.1,2.3,1.6,3.4c1,1.9,2.5,3.4,3.9,4.9c10.1,10.3,19.9,20.8,29.5,31.7c0.5-0.9,0.5-1.9,0.7-2.8
				c0.2-0.9,0.7-2,1.7-2.2c1-0.2,2,0.6,2.6,1.5c0.6,0.9,0.9,2,1.7,2.7c0.3-0.5,0.8-0.8,1.3-1.1c0.9-0.5,2-0.5,3-0.1
				c1.3,0.6,2.2,2,2.1,3.4c1.8-0.1,3.6-0.1,5.3-0.2c1.7-0.1,3.4-0.1,5.1-0.2c7.9-0.3,15.8-0.6,23.7-0.8c1.3,0,2.7-0.1,4-0.1
				c3.4-0.1,6.9-0.2,10.2,0.6c3.1,0.8,5.9,2.5,8.3,4.7c3.1,2.9,5.4,6.7,6.7,10.7c2.3,7.1,2,14.8,0.9,22.1c-1.1,7.4-3,14.6-3.8,22
				c-0.1,0.6-0.1,1.2,0.2,1.7c0.3,0.6,0.9,0.9,1.5,1.1c2.7,1.2,6.2,3,5.5,5.8c-0.5,2-3.3,3.5-2.5,5.5c0.3,0.8,1.2,1.3,1.7,1.9
				c2,2.4-0.1,5.8-0.9,8.8c-1.7,6.6,3.8,12.5,6.2,18.9C414.2,514.3,411.7,523.7,408.3,532z"/>
			<path class="st11" d="M366.3,439.3c7.3,1.4,14.6,2.7,22,4.1c-5.3,13-9.2,26.6-11.7,40.4c-2.3-15.3-6.2-30.3-11.7-44.7
				C365.3,439.1,365.8,439.2,366.3,439.3z"/>
			<path class="st11" d="M338.3,404.4c-0.2-0.9-1.6-0.5-1.4,0.4c0.4,1.5,0.8,3.1,0.9,4.6c0.1,0.8,0.1,1.6,0,2.4
				c0,0.4-0.1,1.7-0.6,1.8c-0.5,0.1-1.1-0.7-1.4-1.1c-0.3-0.5-0.6-1-0.9-1.5c-0.5-1.1-1.1-2.2-1.9-3c-0.4-0.4-1.2-0.1-1.2,0.5
				c0,1.7-0.2,3.3-0.5,5c-0.2,0.8-0.4,1.7-0.7,2.5c-0.1,0.2-0.1,0.3-0.2,0.5c0,0.1-0.1,0.1-0.1,0.2c-0.2-0.2-0.4-0.8-0.4-1
				c-1.3-3.1-1.9-6.5-1.9-9.8c0-0.9-1.4-0.9-1.4,0c0,2.1,0.2,4.2,0.7,6.3c0.2,1,0.5,2.1,0.9,3.1c0.3,0.8,0.6,1.9,1.2,2.5
				c0.6,0.6,1.5,0.5,2-0.2c0.6-0.7,0.8-1.9,1.1-2.8c0.4-1.4,0.6-2.8,0.7-4.2c0.4,0.7,0.7,1.5,1.2,2.3c0.7,1.1,2.1,2.9,3.6,2.1
				c0.7-0.4,0.9-1.1,1.1-1.8c0.2-0.9,0.3-1.9,0.3-2.8C339.3,408.3,338.8,406.4,338.3,404.4z"/>
			<path class="st11" d="M361.8,433.4c-0.3-0.5-0.5-1-0.8-1.5c-0.2-0.4-0.3-0.8-0.6-1.1c-0.6-0.7-1.5-0.7-2.2-0.2
				c-0.4,0.3-0.7,0.6-0.9,1c-0.2,0.2-0.5,0.7-0.8,0.7c-0.3,0-0.6-0.7-0.7-0.9c-0.3-0.5-0.5-1-0.8-1.5c-0.4-0.8-0.7-1.9-1.7-2.1
				c-0.9-0.2-1.5,0.5-1.9,1.2c-1,1.8-1.7,3.7-2.2,5.7c-0.2,0.9,1.2,1.3,1.4,0.4c0.4-1.7,1-3.4,1.8-4.9c0.1-0.3,0.3-0.7,0.5-0.9
				c0.1-0.1,0.1-0.1,0.2,0c0.1,0.2,0.2,0.4,0.3,0.6c0.4,0.8,0.8,1.6,1.2,2.5c0.3,0.6,0.8,1.2,1.5,1.3c0.7,0.1,1.4-0.3,1.8-0.8
				c0.3-0.3,0.9-1.4,1.4-1c0.2,0.2,0.4,0.7,0.5,1l0.7,1.3C361,434.9,362.2,434.2,361.8,433.4z"/>
			<path class="st11" d="M396.3,434.8c-2.3,2.3-4.6,4.6-7,6.8c-0.6,0.6,0.3,1.6,1,1c2.3-2.3,4.6-4.6,7-6.8
				C397.9,435.1,396.9,434.1,396.3,434.8z"/>
			<path class="st11" d="M397.9,441c-2.4,1.4-4.8,2.7-7.3,3.9c-0.3,0.2-0.4,0.7-0.3,1c0.2,0.4,0.6,0.4,1,0.3
				c2.5-1.2,4.9-2.5,7.3-3.9C399.4,441.8,398.7,440.6,397.9,441z"/>
			<path class="st11" d="M398.7,480.4c-1.4,0.4-2.9,0.7-4.4,0.8c-0.4,0-0.7,0.1-1.1,0.1c-0.2,0-0.5,0-0.8,0c0,0,0,0,0,0
				c0.3-0.2,0.6-0.5,0.8-0.7c1.1-0.9,2.3-1.7,3.5-2.4c1-0.6,2.5-1.2,2.5-2.5c0-0.4-0.3-0.7-0.7-0.7c-1.6,0.1-3.1,0.2-4.7,0.2
				c-0.8,0-1.6,0-2.3,0c-0.4,0-0.8,0-1.2,0c-0.2,0-0.3,0-0.5-0.1c0,0,0,0,0,0c0,0,0,0,0.1,0c0.6-0.3,1.2-0.8,1.7-1.2
				c0.6-0.4,1.2-0.8,1.8-1.1c1.3-0.7,2.6-1.4,4-1.9c0.8-0.3,0.5-1.7-0.4-1.4c-1.7,0.7-3.4,1.5-4.9,2.5c-0.8,0.5-1.6,1-2.3,1.5
				c-0.6,0.4-1.4,0.9-1.4,1.7c0,0.7,0.6,1.2,1.3,1.3c0.9,0.2,1.9,0.1,2.8,0.1c1.5,0,2.9,0,4.4-0.1c-0.2,0.1-0.5,0.3-0.7,0.4
				c-0.7,0.4-1.3,0.8-2,1.3c-0.7,0.5-1.4,1-2,1.5c-0.5,0.4-1.3,0.9-1.5,1.6c-0.6,1.9,2.4,1.4,3.4,1.4c1.7-0.1,3.4-0.4,5.1-0.9
				C399.9,481.5,399.6,480.1,398.7,480.4z"/>
			<path class="st11" d="M284,363.2c-1.6-0.2-3,0.7-4.3,1.5c-1.4,0.8-2.7,1.7-4,2.7c-1.2,0.9-2.4,1.9-3.6,3c-0.6,0.6-2.8,2-1.4,2.9
				c0.6,0.4,1.1-0.2,1-0.7c0,0,0,0,0.1-0.1c0.1-0.1,0.2-0.2,0.4-0.3c0.2-0.2,0.5-0.4,0.7-0.7c0.4-0.4,0.9-0.8,1.3-1.1
				c0.9-0.8,1.9-1.6,2.8-2.3c1-0.7,1.9-1.4,3-2c0.5-0.3,1-0.6,1.5-0.8c0.1-0.1,0.2-0.1,0.3-0.2c-3.2,3.9-5.9,8.1-8.3,12.6
				c-0.4,0.8,0.8,1.5,1.2,0.7c2.6-5,5.8-9.7,9.4-13.9C284.6,364,284.5,363.3,284,363.2z"/>
			<path class="st12" d="M301,367.2c-9.1,6.7-17.6,14.4-25.1,22.9c-0.9,1,0.6,2.5,1.5,1.5c7.4-8.3,15.7-15.9,24.7-22.5
				C303.2,368.2,302.1,366.4,301,367.2z"/>
			<path class="st12" d="M310.2,375.3c-9.3,7.4-18.2,15.3-26.6,23.7c-1,1,0.5,2.4,1.5,1.5c8.4-8.4,17.3-16.3,26.6-23.7
				C312.7,376,311.2,374.5,310.2,375.3z"/>
			<path class="st12" d="M320.2,386.2c-10.9,7-20.9,15.3-29.9,24.6c-0.9,1,0.6,2.5,1.5,1.5c8.8-9.2,18.7-17.4,29.4-24.3
				C322.4,387.3,321.3,385.5,320.2,386.2z"/>
			<path class="st12" d="M325.5,394.4c-9.8,9.3-19.2,19-28.2,29c-0.9,1,0.6,2.5,1.5,1.5c9-10.1,18.4-19.7,28.2-29
				C328,395,326.5,393.5,325.5,394.4z"/>
			<path class="st12" d="M332.4,395.2c-4.2,10.4-7.7,21.1-10.4,32c-0.8,3.1-1.5,6.3-2.2,9.4c-0.3,1.3,1.8,1.9,2,0.6
				c2.3-11,5.3-21.8,9.1-32.4c1.1-3,2.2-6,3.4-9C335,394.5,332.9,394,332.4,395.2z"/>
			<path class="st12" d="M341.3,399.7c-3.4,12.7-5.9,25.7-7.4,38.8c-0.2,1.3,1.9,1.3,2.1,0c1.5-12.9,4-25.7,7.4-38.2
				C343.7,398.9,341.6,398.4,341.3,399.7z"/>
			<path class="st12" d="M356.9,397.4c-2.6,11.2-4.4,22.6-5.5,34c-0.3,3.3-0.6,6.6-0.8,9.9c-0.1,1.4,2,1.3,2.1,0
				c0.9-14.6,2.9-29.1,6.2-43.4C359.2,396.6,357.2,396,356.9,397.4z"/>
			<path class="st12" d="M374,398.2c-3.1,11.6-5.9,23.2-8.3,35c-0.7,3.4-1.3,6.7-1.9,10.1c-0.2,1.3,1.8,1.9,2,0.6
				c2.2-11.8,4.7-23.5,7.6-35.1c0.8-3.3,1.7-6.6,2.6-9.9C376.4,397.4,374.4,396.9,374,398.2z"/>
			<path class="st12" d="M386.4,399.4c-2.7,13.8-5.4,27.5-8.1,41.3c-0.3,1.3,1.8,1.9,2,0.6c2.7-13.8,5.4-27.5,8.1-41.3
				C388.7,398.6,386.6,398.1,386.4,399.4z"/>
			<path class="st12" d="M404.7,431c-5.6,4-11.3,7.8-17.1,11.5c-1.1,0.7-0.1,2.5,1.1,1.8c5.8-3.7,11.5-7.5,17.1-11.5
				C406.9,432,405.8,430.2,404.7,431z"/>
			<path class="st12" d="M404.8,446.6c-12.8,4.6-25.3,10-37.4,16.3c-1.2,0.6-0.1,2.4,1.1,1.8c11.9-6.2,24.2-11.6,36.9-16.1
				C406.6,448.2,406.1,446.2,404.8,446.6z"/>
			<path class="st12" d="M409.7,465.2c-13.2,3.3-26,7.9-38.2,13.9c-1.2,0.6-0.1,2.4,1.1,1.8c12-5.9,24.7-10.5,37.7-13.7
				C411.6,466.9,411,464.9,409.7,465.2z"/>
			<path class="st12" d="M409.1,483.5c-11.7,2.6-23.4,5.6-34.9,8.9c-1.3,0.4-0.7,2.4,0.6,2c11.5-3.4,23.2-6.3,34.9-8.9
				C411,485.3,410.4,483.2,409.1,483.5z"/>
			<path class="st12" d="M410.4,491.7c-12.6,3.4-25,7.4-37.2,12c-1.3,0.5-0.7,2.5,0.6,2c12.2-4.6,24.6-8.6,37.2-12
				C412.3,493.3,411.8,491.3,410.4,491.7z"/>
			<path class="st12" d="M412.7,510.6c-6,1-12,2.4-17.8,4.1c-2.9,0.9-5.7,1.8-8.5,2.8c-2.8,1-5.7,2.5-8.7,2.5c-1.4,0-1.4,2.1,0,2.1
				c3.1,0,5.9-1.3,8.7-2.4c2.9-1.1,5.9-2.1,8.8-2.9c5.9-1.8,12-3.2,18.1-4.2C414.6,512.4,414,510.4,412.7,510.6z"/>
			<path class="st12" d="M412.3,527c-9.2,1.7-18.5,3.2-27.9,4.3c-1.3,0.2-1.3,2.3,0,2.1c9.5-1.2,19-2.7,28.4-4.4
				C414.2,528.8,413.7,526.7,412.3,527z"/>
		</g>
	</g>
</g>
<g>
	<path class="st13" d="M376.6,367.2c-0.2,2.3-1.3,4.5-2.8,6.3c-1.5,1.7-3.3,3.1-5.4,4c2.3,8,2.4,16.6,4.6,24.7
		c-7.6,0.3-15.2,0.5-22.9,0.8l0,0l-6,0.2l2.2-10.1c-1.7,0.3-3.3,0.4-5,0.4c-2.3,0-4.7-0.5-6.4-2c0,0-0.1-0.1-0.1-0.1
		c-1.7-1.6-2.3-3.9-2.7-6.1c-2.5-13.2-0.3-27.3,6-39.1c0.7-1.4,1.6-2.8,2.6-3.9l0,0c0.3-0.3,0.5-0.5,0.8-0.8
		c2.5,5.8,6.4,10.9,11.2,15c4.9,4.1,10.7,6.9,16.9,8.3c0.6-0.8,1.4-1.5,2.3-1.8c1-0.4,2.2-0.4,3.1,0.2
		C376.4,363.9,376.7,365.7,376.6,367.2z"/>
	<path class="st14" d="M344.2,403.2c-0.2,0,1.4-6.9,2.2-10.1c5.7-1,11.2-3.7,16.2-6.8c-4.2,5.6-8.6,11.5-13.2,16.8
		C347.7,403,345.9,403.1,344.2,403.2z"/>
</g>
<g>
	<path class="st5" d="M261.1,557.8c-0.6,0-1.2,0-1.8,0c-1.1,0-2.3-0.1-3.4-0.5c-2.3-0.9-3.6-3.4-4.3-5.8c-1.2-4-1.7-8.2-1.3-12.3
		c2.7,1.5,5.5,3,8.2,4.7C257.6,548.6,258.6,553.7,261.1,557.8z"/>
	<path class="st9" d="M277.7,556.2l0,0.3c-5.5,0.8-11.1,1.3-16.6,1.3c-2.5-4.1-3.5-9.2-2.7-14c2.2,1.4,4.4,2.9,6.3,4.7
		c2,1.8,3.8,3.9,6.1,5.5C272.8,555.4,275.3,556.4,277.7,556.2z"/>
</g>
<g>
	<g>
		<path class="st15" d="M399,555.4c-1.7,2.4-4.4,4.2-7.2,5.1c-3.6,1.2-7.5,1.2-11.3,1c-6.5-0.3-13-0.9-19.4-1.9
			c-1.3,2.4-3.1,4.6-5.9,5.1c-1.7,0.3-3.3-0.3-4.9-0.9c-1.8-0.7-3.6-1.5-5.4-2.3c-3.6-1.6-7-3.5-10.4-5.4c-1.7-1-3.5-1.9-5.3-2.7
			c-1.8-0.8-3.7-1.4-5.5-2.1c-3.1-1.2-6.1-2.6-9-4.1c-0.9-0.4-1.9-0.8-2.8-1.2c-0.7,0.8-1.4,1.5-2.1,2.3c-3.3,3.6-5.9,7.9-7.6,12.4
			c0,0.1,0,0.1-0.1,0.2c-0.6,1.5-1.1,3.1-2.3,4.1c-1.2,1-3.4,1.1-4.2-0.3c-0.2-0.3-0.3-0.6-0.5-0.9c-0.7-0.8-1.9-0.4-3-0.2
			c-3,0.4-6-2.8-5.3-5.8l-0.7-0.1c0,0.1-0.1,0.3-0.1,0.4l-0.1,0c-0.6,1.8-2.7,2.9-4.6,2.4c-1.8-0.5-3.1-2.6-2.7-4.4
			c-0.3,0.1-0.5,0.1-0.8,0.1c-2.4,0.3-4.9-0.8-6.9-2.2c-2.2-1.6-4-3.7-6.1-5.5c-1.9-1.8-4.1-3.3-6.3-4.7c-2.6-1.7-5.4-3.1-8.2-4.7
			c-0.3-0.2-0.7-0.4-1-0.6c-5.4-3-10.7-6.4-14.3-11.4c-3.6-5-5.1-11.9-2.3-17.4c2.2-4.4,6.8-7.1,11.4-8.8c9.4-3.5,19.7-3.8,29.7-2.5
			c10,1.3,19.7,4,29.4,6.3c4.3,1,8.7,1.9,13,2.7c2.6,0.5,5.3,1,7.9,1.4c19,3.3,38.3,5.3,57.5,7.2c0.1,0.3,0.2,0.6,0.3,0.9
			c1.8,5.7,4.3,11.2,6.9,16.6C392.2,541,395.6,548.2,399,555.4z"/>
		<path class="st15" d="M305.9,538.3c0.5,0.4,0.8,0.9,1.1,1.5c0.2,0.4,0.3,0.8,0.5,1.1c0.7,0.9,2.1,0.7,3.2,0.4
			c1.1-0.4,2.3-0.9,3.3-0.4c0.4,0.1,0.7,0.4,0.7,0.8c0,0.3-0.1,0.5-0.3,0.8c-0.8,1.3-1.8,2.5-2.8,3.6c-0.7,0.8-1.4,1.5-2.1,2.3
			c-3.3,3.6-5.9,7.9-7.6,12.4c0,0.1,0,0.1-0.1,0.2c-0.6,1.5-1.1,3.1-2.3,4.1c-1.2,1-3.4,1.1-4.2-0.3c-0.2-0.3-0.3-0.6-0.5-0.9
			c-0.7-0.8-1.9-0.4-3-0.2c-3,0.4-6-2.8-5.3-5.8l-0.7-0.1c1.5-7.8,6.1-15,12.7-19.5c0.2-0.2,0.4-0.3,0.7-0.5l0,0
			C301.2,536.3,304.2,536.7,305.9,538.3z"/>
		<path class="st15" d="M330.8,528.2c-8.7,2.3-17.3,5.2-24.9,10.1c-1.8-1.6-4.7-2-6.7-0.5l0,0c1.9-1.4,3.9-3.4,3-5.4
			c-0.6-1.4-2.5-2-4-1.8c-1.6,0.1-3.1,0.7-4.7,0.7c-0.5,0-1.1-0.1-1.5-0.4c-0.9-0.8-0.5-2.3-1.1-3.4c-0.9-1.5-3.1-1-4.7-1.5
			c-1.2-0.3-2.1-1.1-3-1.9c-5.1-4.3-10.3-8.5-15.4-12.8C288.2,518.9,309.1,526.3,330.8,528.2z"/>
		<path class="st15" d="M288.9,536.2c-2.7,1.4-4.6,4-6.5,6.3c-1.1,1.3-2.2,2.6-3.3,3.9c-0.3,0.3-0.6,0.7-0.9,1
			c-0.1,0.2-0.5,0.4-0.7,0.7c0,0,0-0.1,0-0.1c0.5-3,1.7-6,2.9-8.8c1.3-2.9,2.8-5.6,4.6-8.2c0.8-1.1-1-2.2-1.8-1.1
			c-3.2,4.6-5.7,9.8-7.2,15.3c-0.4,1.4-1.7,5.6,1.1,5.6c1.3,0,2.2-1.5,2.9-2.4l3.1-3.6c0.5-0.6,1-1.2,1.6-1.8
			c-1.4,2.9-2.5,6-3.3,9.1c-0.3,1.3,1.7,1.9,2,0.6c1.3-5.4,3.6-10.5,6.8-15C291,536.7,289.8,535.8,288.9,536.2z"/>
		<path class="st15" d="M379.7,522.2c-17.2-0.3-34.4,1.2-51.2,4.7c-4.7,1-9.4,2.1-14.1,3.4c-1.3,0.4-0.8,2.4,0.6,2
			c16.4-4.4,33.3-7.1,50.2-7.8c4.8-0.2,9.7-0.3,14.5-0.2C381.1,524.4,381.1,522.3,379.7,522.2z"/>
		<path class="st15" d="M244.9,507.2c-3.6,3.2-6.7,6.8-9.3,10.9c-0.7,1.1,1.1,2.2,1.8,1.1c2.5-3.9,5.5-7.4,9-10.5
			C247.4,507.8,245.9,506.3,244.9,507.2z"/>
		<path class="st15" d="M247,514.5c-0.4-0.4-1.1-0.4-1.5,0c-1.8,1.9-3.7,3.9-5.5,5.8c-0.4,0.4-0.4,1.1,0,1.5c0.4,0.4,1.1,0.4,1.5,0
			c1.8-1.9,3.7-3.9,5.5-5.8C247.4,515.5,247.5,514.8,247,514.5z"/>
		<path class="st15" d="M298.9,549.5c-2.1,3.2-3.9,6.6-5.4,10.1c-0.2,0.5-0.2,1.1,0.4,1.4c0.4,0.3,1.2,0.1,1.4-0.4
			c1.5-3.5,3.3-6.9,5.4-10.1C301.5,549.4,299.6,548.3,298.9,549.5z"/>
		<path class="st15" d="M293,553.3c-0.6-0.1-1.1,0.2-1.3,0.7c-0.1,0.2-0.1,0.4-0.2,0.6c0,0,0,0.1,0,0.1c0,0.1-0.1,0.1-0.1,0.2
			c-0.2,0.4-0.3,0.7-0.5,1.1c-0.4,0.7-0.8,1.4-1.2,2c-0.3,0.5-0.1,1.2,0.4,1.4c0.5,0.3,1.1,0.1,1.4-0.4c0.9-1.4,1.7-2.9,2.3-4.5
			C294,554.1,293.6,553.4,293,553.3z"/>
	</g>
	<g>
		<path class="st4" d="M399,555.4c-1.7,2.4-4.4,4.2-7.2,5.1c-3.6,1.2-7.5,1.2-11.3,1c-6.5-0.3-13-0.9-19.4-1.9
			c-1.3,2.4-3.1,4.6-5.9,5.1c-1.7,0.3-3.3-0.3-4.9-0.9c-1.8-0.7-3.6-1.5-5.4-2.3c-3.6-1.6-7-3.5-10.4-5.4c-1.7-1-3.5-1.9-5.3-2.7
			c-1.8-0.8-3.7-1.4-5.5-2.1c-3.1-1.2-6.1-2.6-9-4.1c-0.9-0.4-1.9-0.8-2.8-1.2c-0.7,0.8-1.4,1.5-2.1,2.3c-3.3,3.6-5.9,7.9-7.6,12.4
			c0,0.1,0,0.1-0.1,0.2c-0.6,1.5-1.1,3.1-2.3,4.1c-1.2,1-3.4,1.1-4.2-0.3c-0.2-0.3-0.3-0.6-0.5-0.9c-0.7-0.8-1.9-0.4-3-0.2
			c-3,0.4-6-2.8-5.3-5.8l-0.7-0.1c0,0.1-0.1,0.3-0.1,0.4l-0.1,0c-0.6,1.8-2.7,2.9-4.6,2.4c-1.8-0.5-3.1-2.6-2.7-4.4
			c-0.3,0.1-0.5,0.1-0.8,0.1c-2.4,0.3-4.9-0.8-6.9-2.2c-2.2-1.6-4-3.7-6.1-5.5c-1.9-1.8-4.1-3.3-6.3-4.7c-2.6-1.7-5.4-3.1-8.2-4.7
			c-0.3-0.2-0.7-0.4-1-0.6c-5.4-3-10.7-6.4-14.3-11.4c-3.6-5-5.1-11.9-2.3-17.4c2.2-4.4,6.8-7.1,11.4-8.8c9.4-3.5,19.7-3.8,29.7-2.5
			c10,1.3,19.7,4,29.4,6.3c4.3,1,8.7,1.9,13,2.7c2.6,0.5,5.3,1,7.9,1.4c19,3.3,38.3,5.3,57.5,7.2c0.1,0.3,0.2,0.6,0.3,0.9
			c1.8,5.7,4.3,11.2,6.9,16.6C392.2,541,395.6,548.2,399,555.4z"/>
		<path class="st16" d="M305.9,538.3c0.5,0.4,0.8,0.9,1.1,1.5c0.2,0.4,0.3,0.8,0.5,1.1c0.7,0.9,2.1,0.7,3.2,0.4
			c1.1-0.4,2.3-0.9,3.3-0.4c0.4,0.1,0.7,0.4,0.7,0.8c0,0.3-0.1,0.5-0.3,0.8c-0.8,1.3-1.8,2.5-2.8,3.6c-0.7,0.8-1.4,1.5-2.1,2.3
			c-3.3,3.6-5.9,7.9-7.6,12.4c0,0.1,0,0.1-0.1,0.2c-0.6,1.5-1.1,3.1-2.3,4.1c-1.2,1-3.4,1.1-4.2-0.3c-0.2-0.3-0.3-0.6-0.5-0.9
			c-0.7-0.8-1.9-0.4-3-0.2c-3,0.4-6-2.8-5.3-5.8l-0.7-0.1c1.5-7.8,6.1-15,12.7-19.5c0.2-0.2,0.4-0.3,0.7-0.5l0,0
			C301.2,536.3,304.2,536.7,305.9,538.3z"/>
		<path class="st17" d="M330.8,528.2c-8.7,2.3-17.3,5.2-24.9,10.1c-1.8-1.6-4.7-2-6.7-0.5l0,0c1.9-1.4,3.9-3.4,3-5.4
			c-0.6-1.4-2.5-2-4-1.8c-1.6,0.1-3.1,0.7-4.7,0.7c-0.5,0-1.1-0.1-1.5-0.4c-0.9-0.8-0.5-2.3-1.1-3.4c-0.9-1.5-3.1-1-4.7-1.5
			c-1.2-0.3-2.1-1.1-3-1.9c-5.1-4.3-10.3-8.5-15.4-12.8C288.2,518.9,309.1,526.3,330.8,528.2z"/>
		<path class="st4" d="M288.9,536.2c-2.7,1.4-4.6,4-6.5,6.3c-1.1,1.3-2.2,2.6-3.3,3.9c-0.3,0.3-0.6,0.7-0.9,1
			c-0.1,0.2-0.5,0.4-0.7,0.7c0,0,0-0.1,0-0.1c0.5-3,1.7-6,2.9-8.8c1.3-2.9,2.8-5.6,4.6-8.2c0.8-1.1-1-2.2-1.8-1.1
			c-3.2,4.6-5.7,9.8-7.2,15.3c-0.4,1.4-1.7,5.6,1.1,5.6c1.3,0,2.2-1.5,2.9-2.4l3.1-3.6c0.5-0.6,1-1.2,1.6-1.8
			c-1.4,2.9-2.5,6-3.3,9.1c-0.3,1.3,1.7,1.9,2,0.6c1.3-5.4,3.6-10.5,6.8-15C291,536.7,289.8,535.8,288.9,536.2z"/>
		<path class="st17" d="M379.7,522.2c-17.2-0.3-34.4,1.2-51.2,4.7c-4.7,1-9.4,2.1-14.1,3.4c-1.3,0.4-0.8,2.4,0.6,2
			c16.4-4.4,33.3-7.1,50.2-7.8c4.8-0.2,9.7-0.3,14.5-0.2C381.1,524.4,381.1,522.3,379.7,522.2z"/>
		<path class="st16" d="M244.9,507.2c-3.6,3.2-6.7,6.8-9.3,10.9c-0.7,1.1,1.1,2.2,1.8,1.1c2.5-3.9,5.5-7.4,9-10.5
			C247.4,507.8,245.9,506.3,244.9,507.2z"/>
		<path class="st16" d="M247,514.5c-0.4-0.4-1.1-0.4-1.5,0c-1.8,1.9-3.7,3.9-5.5,5.8c-0.4,0.4-0.4,1.1,0,1.5c0.4,0.4,1.1,0.4,1.5,0
			c1.8-1.9,3.7-3.9,5.5-5.8C247.4,515.5,247.5,514.8,247,514.5z"/>
		<path class="st16" d="M298.9,549.5c-2.1,3.2-3.9,6.6-5.4,10.1c-0.2,0.5-0.2,1.1,0.4,1.4c0.4,0.3,1.2,0.1,1.4-0.4
			c1.5-3.5,3.3-6.9,5.4-10.1C301.5,549.4,299.6,548.3,298.9,549.5z"/>
		<path class="st16" d="M293,553.3c-0.6-0.1-1.1,0.2-1.3,0.7c-0.1,0.2-0.1,0.4-0.2,0.6c0,0,0,0.1,0,0.1c0,0.1-0.1,0.1-0.1,0.2
			c-0.2,0.4-0.3,0.7-0.5,1.1c-0.4,0.7-0.8,1.4-1.2,2c-0.3,0.5-0.1,1.2,0.4,1.4c0.5,0.3,1.1,0.1,1.4-0.4c0.9-1.4,1.7-2.9,2.3-4.5
			C294,554.1,293.6,553.4,293,553.3z"/>
	</g>
	<g>
		<path class="st18" d="M399,555.4c-1.7,2.4-4.4,4.2-7.2,5.1c-3.6,1.2-7.5,1.2-11.3,1c-6.5-0.3-13-0.9-19.4-1.9
			c-1.3,2.4-3.1,4.6-5.9,5.1c-1.7,0.3-3.3-0.3-4.9-0.9c-1.8-0.7-3.6-1.5-5.4-2.3c-3.6-1.6-7-3.5-10.4-5.4c-1.7-1-3.5-1.9-5.3-2.7
			c-1.8-0.8-3.7-1.4-5.5-2.1c-3.1-1.2-6.1-2.6-9-4.1c-0.9-0.4-1.9-0.8-2.8-1.2c-0.7,0.8-1.4,1.5-2.1,2.3c-3.3,3.6-5.9,7.9-7.6,12.4
			c0,0.1,0,0.1-0.1,0.2c-0.6,1.5-1.1,3.1-2.3,4.1c-1.2,1-3.4,1.1-4.2-0.3c-0.2-0.3-0.3-0.6-0.5-0.9c-0.7-0.8-1.9-0.4-3-0.2
			c-3,0.4-6-2.8-5.3-5.8l-0.7-0.1c0,0.1-0.1,0.3-0.1,0.4l-0.1,0c-0.6,1.8-2.7,2.9-4.6,2.4c-1.8-0.5-3.1-2.6-2.7-4.4
			c-0.3,0.1-0.5,0.1-0.8,0.1c-2.4,0.3-4.9-0.8-6.9-2.2c-2.2-1.6-4-3.7-6.1-5.5c-1.9-1.8-4.1-3.3-6.3-4.7c-2.6-1.7-5.4-3.1-8.2-4.7
			c-0.3-0.2-0.7-0.4-1-0.6c-5.4-3-10.7-6.4-14.3-11.4c-3.6-5-5.1-11.9-2.3-17.4c2.2-4.4,6.8-7.1,11.4-8.8c9.4-3.5,19.7-3.8,29.7-2.5
			c10,1.3,19.7,4,29.4,6.3c4.3,1,8.7,1.9,13,2.7c2.6,0.5,5.3,1,7.9,1.4c19,3.3,38.3,5.3,57.5,7.2c0.1,0.3,0.2,0.6,0.3,0.9
			c1.8,5.7,4.3,11.2,6.9,16.6C392.2,541,395.6,548.2,399,555.4z"/>
		<path class="st18" d="M305.9,538.3c0.5,0.4,0.8,0.9,1.1,1.5c0.2,0.4,0.3,0.8,0.5,1.1c0.7,0.9,2.1,0.7,3.2,0.4
			c1.1-0.4,2.3-0.9,3.3-0.4c0.4,0.1,0.7,0.4,0.7,0.8c0,0.3-0.1,0.5-0.3,0.8c-0.8,1.3-1.8,2.5-2.8,3.6c-0.7,0.8-1.4,1.5-2.1,2.3
			c-3.3,3.6-5.9,7.9-7.6,12.4c0,0.1,0,0.1-0.1,0.2c-0.6,1.5-1.1,3.1-2.3,4.1c-1.2,1-3.4,1.1-4.2-0.3c-0.2-0.3-0.3-0.6-0.5-0.9
			c-0.7-0.8-1.9-0.4-3-0.2c-3,0.4-6-2.8-5.3-5.8l-0.7-0.1c1.5-7.8,6.1-15,12.7-19.5c0.2-0.2,0.4-0.3,0.7-0.5l0,0
			C301.2,536.3,304.2,536.7,305.9,538.3z"/>
		<path class="st18" d="M330.8,528.2c-8.7,2.3-17.3,5.2-24.9,10.1c-1.8-1.6-4.7-2-6.7-0.5l0,0c1.9-1.4,3.9-3.4,3-5.4
			c-0.6-1.4-2.5-2-4-1.8c-1.6,0.1-3.1,0.7-4.7,0.7c-0.5,0-1.1-0.1-1.5-0.4c-0.9-0.8-0.5-2.3-1.1-3.4c-0.9-1.5-3.1-1-4.7-1.5
			c-1.2-0.3-2.1-1.1-3-1.9c-5.1-4.3-10.3-8.5-15.4-12.8C288.2,518.9,309.1,526.3,330.8,528.2z"/>
		<path class="st18" d="M288.9,536.2c-2.7,1.4-4.6,4-6.5,6.3c-1.1,1.3-2.2,2.6-3.3,3.9c-0.3,0.3-0.6,0.7-0.9,1
			c-0.1,0.2-0.5,0.4-0.7,0.7c0,0,0-0.1,0-0.1c0.5-3,1.7-6,2.9-8.8c1.3-2.9,2.8-5.6,4.6-8.2c0.8-1.1-1-2.2-1.8-1.1
			c-3.2,4.6-5.7,9.8-7.2,15.3c-0.4,1.4-1.7,5.6,1.1,5.6c1.3,0,2.2-1.5,2.9-2.4l3.1-3.6c0.5-0.6,1-1.2,1.6-1.8
			c-1.4,2.9-2.5,6-3.3,9.1c-0.3,1.3,1.7,1.9,2,0.6c1.3-5.4,3.6-10.5,6.8-15C291,536.7,289.8,535.8,288.9,536.2z"/>
		<path class="st18" d="M379.7,522.2c-17.2-0.3-34.4,1.2-51.2,4.7c-4.7,1-9.4,2.1-14.1,3.4c-1.3,0.4-0.8,2.4,0.6,2
			c16.4-4.4,33.3-7.1,50.2-7.8c4.8-0.2,9.7-0.3,14.5-0.2C381.1,524.4,381.1,522.3,379.7,522.2z"/>
		<path class="st18" d="M244.9,507.2c-3.6,3.2-6.7,6.8-9.3,10.9c-0.7,1.1,1.1,2.2,1.8,1.1c2.5-3.9,5.5-7.4,9-10.5
			C247.4,507.8,245.9,506.3,244.9,507.2z"/>
		<path class="st18" d="M247,514.5c-0.4-0.4-1.1-0.4-1.5,0c-1.8,1.9-3.7,3.9-5.5,5.8c-0.4,0.4-0.4,1.1,0,1.5c0.4,0.4,1.1,0.4,1.5,0
			c1.8-1.9,3.7-3.9,5.5-5.8C247.4,515.5,247.5,514.8,247,514.5z"/>
		<path class="st18" d="M298.9,549.5c-2.1,3.2-3.9,6.6-5.4,10.1c-0.2,0.5-0.2,1.1,0.4,1.4c0.4,0.3,1.2,0.1,1.4-0.4
			c1.5-3.5,3.3-6.9,5.4-10.1C301.5,549.4,299.6,548.3,298.9,549.5z"/>
		<path class="st18" d="M293,553.3c-0.6-0.1-1.1,0.2-1.3,0.7c-0.1,0.2-0.1,0.4-0.2,0.6c0,0,0,0.1,0,0.1c0,0.1-0.1,0.1-0.1,0.2
			c-0.2,0.4-0.3,0.7-0.5,1.1c-0.4,0.7-0.8,1.4-1.2,2c-0.3,0.5-0.1,1.2,0.4,1.4c0.5,0.3,1.1,0.1,1.4-0.4c0.9-1.4,1.7-2.9,2.3-4.5
			C294,554.1,293.6,553.4,293,553.3z"/>
	</g>
</g>
<path class="st14" d="M374.1,366.5c-0.3-0.9-1.3-1-2-0.6c-0.8,0.4-1.5,1.3-2,2.1c-0.5,0.8-0.9,1.8-1.1,2.8c-0.1,0.8-0.1,2.3,1,2.1
	c1-0.1,1.7-1.3,2-2.2c0.1-0.4-0.6-0.6-0.7-0.2c-0.1,0.4-0.3,0.8-0.6,1.2c-0.2,0.2-0.7,0.8-1,0.5c-0.2-0.1-0.1-0.5-0.1-0.6
	c0-0.3,0-0.5,0.1-0.8c0.1-0.4,0.2-0.8,0.4-1.2c0.3-0.8,0.8-1.6,1.4-2.2c0.3-0.3,0.6-0.7,1-0.8c0.3-0.1,0.8-0.1,0.9,0.2
	C373.6,367.1,374.3,367,374.1,366.5z"/>
<path class="st19" d="M359.2,375.2c0,2.7-2.2,5-5,5c-2.7,0-5-2.2-5-5c0-2.7,2.2-5,5-5C357,370.3,359.2,372.5,359.2,375.2z"/>
<path class="st7" d="M346.7,378.8c-2,2.7-5.1,4.5-8.5,4.9c-0.4,0.1-0.4,0.8,0,0.7c3.6-0.5,6.9-2.4,9.1-5.3
	C347.5,378.8,346.9,378.4,346.7,378.8z"/>
<path class="st6" d="M336.8,357.1c-0.2-0.5-0.7-0.9-1.3-0.7c-1.3,0.5-2.6,1-3.9,1.6c-0.2,0.1-0.4,0.4-0.5,0.6
	c-0.1,0.3,0,0.6,0.1,0.8c0.1,0.2,0.4,0.4,0.6,0.5c0.3,0.1,0.5,0,0.8-0.1c0.1,0,0.2-0.1,0.3-0.1c0,0,0,0,0,0c0.2-0.1,0.3-0.1,0.5-0.2
	c0.3-0.1,0.6-0.2,0.9-0.4c0.6-0.2,1.2-0.5,1.8-0.7c0.3-0.1,0.5-0.2,0.6-0.5C336.8,357.7,336.8,357.3,336.8,357.1z"/>
<circle class="st4" cx="334.7" cy="363.2" r="2"/>
<circle class="st4" cx="351.3" cy="363.2" r="2"/>
<path class="st20" d="M336.8,357.1c-0.2-0.5-0.7-0.9-1.3-0.7c-1.3,0.5-2.6,1-3.9,1.6c-0.2,0.1-0.4,0.4-0.5,0.6
	c-0.1,0.3,0,0.6,0.1,0.8c0.1,0.2,0.4,0.4,0.6,0.5c0.3,0.1,0.5,0,0.8-0.1c0.1,0,0.2-0.1,0.3-0.1c0,0,0,0,0,0c0.2-0.1,0.3-0.1,0.5-0.2
	c0.3-0.1,0.6-0.2,0.9-0.4c0.6-0.2,1.2-0.5,1.8-0.7c0.3-0.1,0.5-0.2,0.6-0.5C336.8,357.7,336.9,357.4,336.8,357.1z"/>
<path class="st6" d="M353.7,356.4c-1.4,0-2.9-0.1-4.3-0.2c-0.5,0-1.1,0.5-1.1,1.1c0,0.6,0.5,1,1.1,1.1c1.4,0.1,2.9,0.2,4.3,0.2
	c0.6,0,1.1-0.5,1.1-1.1C354.8,356.9,354.3,356.4,353.7,356.4z"/>
<path class="st20" d="M353.8,356.4c-1.4,0-2.9-0.1-4.3-0.2c-0.5,0-1.1,0.5-1.1,1.1c0,0.6,0.5,1,1.1,1.1c1.4,0.1,2.9,0.2,4.3,0.2
	c0.6,0,1.1-0.5,1.1-1.1C354.8,356.9,354.4,356.5,353.8,356.4z"/>
<path class="st7" d="M379.8,359.4c-0.9-0.1-1.9,0.2-2.8,0.3c-1,0.1-2,0.2-3,0.4c-3.7,0.4-7.3,1-10.9,1.7c0-3.2-1.5-6.5-4.1-8.3
	c-3.2-2.2-8.1-2.6-11.6-0.7c-0.1,0-0.2,0-0.4,0.1c-0.7,0.4-1.3,1.1-1.8,1.7c0,0,0,0-0.1,0.1c0,0.1-0.1,0.1-0.1,0.2
	c-0.6,1-1.1,2.1-1.4,3.2c-0.3,1-0.5,2.2-0.5,3.3c0,0-0.1,0-0.1,0c-0.9,0-1.8,0-2.6,0c-0.1-3-1.5-6.1-3.8-7.8
	c-3-2.2-7.6-2.6-10.8-0.7c-0.1,0-0.2,0-0.3,0.1c-0.7,0.4-1.3,1.1-1.7,1.7c0,0,0,0-0.1,0.1c0,0.1-0.1,0.1-0.1,0.2
	c-0.6,1-1,2.1-1.3,3.2c-0.6,2.1-0.7,4.3-0.2,6.4c1.1,4,4.7,6.3,8.5,6.5c4,0.1,8.1-2.2,9.4-6.4c0.2-0.6,0.3-1.2,0.4-1.8
	c0.9-0.1,1.8-0.1,2.7,0c0,0,0.1,0,0.1,0c0.1,0.6,0.2,1.2,0.3,1.8c1.1,4,5.1,6.3,9.1,6.5c4.3,0.1,8.7-2.2,10.1-6.4
	c0.1-0.4,0.2-0.8,0.3-1.3c3.1-0.7,6.3-1.2,9.5-1.6c1.6-0.2,3.1-0.4,4.7-0.6c0.7-0.1,1.5-0.3,2.3-0.3c0.5,0,0.4,0.2,0.5,0.6
	c0.1,0.4,0.1,0.9,0.1,1.3c0,0.9,1.4,0.9,1.4,0C381.4,361.4,381.4,359.6,379.8,359.4z M339,362.6c-0.7,7.7-12.1,9.5-15.2,2.7
	c-0.9-1.8-0.9-4-0.5-5.9c0.3-1.3,0.7-2.7,1.4-3.8c2.4-3,6.7-3.2,9.9-1.7C337.6,355.3,339.3,359,339,362.6z M361.6,362.6
	c-0.8,7.7-12.9,9.5-16.3,2.7c-0.9-1.8-1-4-0.5-5.9c0.3-1.3,0.7-2.7,1.5-3.8c2.5-3,7.1-3.2,10.6-1.7
	C360.1,355.3,361.9,359,361.6,362.6z"/>
<path class="st14" d="M340.5,377.1c-0.7-0.1-1.3-0.2-2-0.3c-0.3-0.1-0.6-0.1-0.9-0.2c-0.1,0-0.3-0.1-0.4-0.1
	c-0.2-0.1-0.2-0.2-0.2-0.4c0-0.3,0.2-0.7,0.3-1c0.1-0.3,0.2-0.6,0.2-0.9c0.2-0.6,0.3-1.3,0.5-1.9c0.7-2.5,1.4-5.1,2.2-7.6
	c0.1-0.4-0.5-0.7-0.7-0.2c-0.9,2.9-1.7,5.8-2.5,8.8c-0.2,0.7-0.4,1.4-0.6,2.2c-0.1,0.5-0.3,1.1,0,1.5c0.4,0.4,1.2,0.5,1.7,0.6
	c0.7,0.2,1.5,0.3,2.2,0.4C340.9,377.8,340.9,377.1,340.5,377.1z"/>
<g>
	<path class="st5" d="M334.5,483.8c-2.6-0.6-4.1-4-2.9-6.4c0.4-0.7,0.9-1.3,0.9-2.1c0-0.5-0.3-1-0.6-1.4c-1.4-2-3.3-3.8-4.3-6
		c-1.1-2.2-1.1-5.2,0.7-6.9c0.7-0.6,1.6-1.1,1.9-2c0.4-1.1-0.4-2.2-1-3.1c-4.5-6.5-6.3-14.8-4.9-22.6c7.2,0.9,14.5,1.8,21.7,2.7
		c0.8,0.1,1.7,0.2,2.3,0.8c0.6,0.5,0.8,1.2,1.2,1.8c1.8,2.6,6.6,2.2,7.8-0.8c1.1,1.5,2.8,3.2,4.6,2.6c0.8-0.2,1.4-0.9,2.2-1.1
		c0.2-0.1,0.5-0.1,0.7-0.1c5.5,14.4,9.4,29.4,11.7,44.7c0.3,2,0.6,4,0.8,6c1.1,8.6,1.6,17.4,4,25.8c0.1,0.2,0.1,0.4,0.2,0.6
		c-19.2-1.9-38.5-4-57.5-7.2c3-4.4,4.6-9.7,4.7-15c0-2.2-0.1-4.6,1-6.5C330.9,485.7,332.7,484.7,334.5,483.8z"/>
	<path class="st21" d="M370.7,483.2c0.2,0.8-0.5,1.5-1.2,2c-2.2,1.6-5.1,2-7.6,3.1c-0.3,0.1-0.6,0.3-0.7,0.6
		c-0.2,0.4,0.2,0.9,0.6,1.2c2.1,1.7,4.9,2.9,5.7,5.5c-7.6,1-15.4,1.1-23,0.4c-3-0.3-6.3-0.8-8.4-3c-0.4-0.4-0.8-1-0.7-1.5
		c0.1-0.7,0.9-1.1,1.6-1.3c9.5-3.3,19.2-6,29-8.2c0.8,0,1.6,0,2.4,0C369.3,481.9,370.5,482.3,370.7,483.2z"/>
</g>
<g>
	<path class="st5" d="M353.3,564.4c0.4,1.1,0.7,2.3,1,3.5c0.3,1.1,0.5,2.3,0.3,3.4c-0.2,1.2-0.9,2.2-1.7,3.1c-1.3,1.5-3,2.6-4.7,3.5
		c-2.5,1.4-5.2,2.6-7.9,3.7c-6.6,2.5-13.7,4.4-20.6,2.9c-2.3-0.5-4.6-1.4-6.2-3.1c-1.1-1.2-1.8-2.7-2.3-4.2c-1.5-3.9-2.5-8.1-3-12.3
		c0.1-0.5,0.3-1.1,0.6-1.5c0.3-0.7,0.8-1.3,1.3-1.8c1.8-1.8,4.3-2.6,6.7-3.4c1-0.3,2.1-0.6,3.1-0.9c6.1-1.6,12.4-2.7,18.7-2.8
		c1.6,0,3.2,0,4.7,0.3c1.5,0.3,3,0.7,4.3,1.5C350.5,557.9,352.2,561,353.3,564.4z"/>
	<path class="st9" d="M324,551.4c0-0.1,0.1-0.2,0.1-0.2c0.3-1.1,0.7-2.4,1.8-2.6c0.4-0.1,0.8,0.1,1.2,0.2c5.4,2,10.8,4,16.2,5.9
		c-1.5-0.3-3.2-0.3-4.7-0.3c-6.3,0.1-12.6,1.2-18.7,2.8C321.8,555.8,323.3,553.7,324,551.4z"/>
	<path class="st13" d="M311.7,546c4.1,1.8,8.2,3.6,12.3,5.4c-0.7,2.3-2.2,4.5-4.2,5.9c-1.1,0.3-2.1,0.6-3.1,0.9
		c-2.4,0.7-4.9,1.6-6.7,3.4c-0.5,0.5-0.9,1.1-1.3,1.8c-2.3-0.9-4.5-1.7-6.7-2.6c1.8-4.6,4.4-8.8,7.6-12.4
		C310.3,547.5,311,546.7,311.7,546z"/>
	<path class="st22" d="M320.2,582.8c-2.9-7.3-5.5-14.7-7.8-22.2c-0.3-0.9-1.6-0.5-1.4,0.4c2.3,7.5,4.9,14.9,7.8,22.2
		C319.1,584.1,320.5,583.7,320.2,582.8z"/>
	<path class="st22" d="M327,582.9c-2.5-8.5-4.9-16.9-7.2-25.4c-0.2-0.9-1.6-0.5-1.4,0.4c2.3,8.5,4.7,17,7.2,25.4
		C325.9,584.1,327.3,583.8,327,582.9z"/>
	<path class="st22" d="M333,582.5c-1.9-8.9-4-17.7-6.1-26.6c-0.2-0.9-1.6-0.5-1.4,0.4c2.2,8.8,4.2,17.7,6.1,26.6
		C331.9,583.7,333.2,583.4,333,582.5z"/>
	<path class="st22" d="M335.7,555.3c-0.2-0.9-1.5-0.5-1.4,0.4c1.5,8.3,3.1,16.6,4.6,24.9c0.2,0.9,1.5,0.5,1.4-0.4
		C338.8,571.8,337.3,563.5,335.7,555.3z"/>
	<path class="st22" d="M347.3,576.4c-1.6-7.2-3.3-14.4-5.2-21.6c-0.2-0.9-1.6-0.5-1.4,0.4c1.9,7.2,3.6,14.4,5.2,21.6
		C346.2,577.6,347.5,577.2,347.3,576.4z"/>
	<path class="st22" d="M353.3,573.1c-1.6-5.4-3.4-10.8-5.1-16.2c-0.3-0.9-1.6-0.5-1.4,0.4c1.8,5.4,3.5,10.8,5.1,16.2
		C352.3,574.3,353.6,573.9,353.3,573.1z"/>
</g>
<g>
	<path class="st23" d="M271.7,447l7.7,38c0.3,1.5,1.7,2.6,3.2,2.6h47.7c2,0,3.6-1.8,3.3-3.8l-6.3-38c-0.3-1.6-1.6-2.8-3.3-2.8h-49.1
		C272.8,443.1,271.3,445,271.7,447z"/>
	<path class="st24" d="M270.3,447l7.7,38c0.3,1.5,1.7,2.6,3.2,2.6H329c2,0,3.6-1.8,3.3-3.8l-6.3-38c-0.3-1.6-1.6-2.8-3.3-2.8h-49.1
		C271.5,443.1,269.9,445,270.3,447z"/>
</g>
<g>
	<path class="st13" d="M276.5,476.5c-1.3,0.2-2.6,0.2-3.7-0.4c-0.2-0.1-0.4-0.2-0.6-0.3c4.5-1.5,8.6-4.3,11.6-8
		c0.5,0.2,0.9,0.7,1,1.3c0.1,0.7,0,1.4-0.3,2c-1.2,3-4.5,4.8-7.7,5.4C276.7,476.4,276.6,476.5,276.5,476.5z"/>
	<path class="st13" d="M284.4,462.7c0.1,0.6-0.1,1.2-0.5,1.6c-0.2,0.2-0.3,0.4-0.5,0.6c-0.7,0.5-1.5,0.8-2.3,1.1
		c-3.6,1.1-7.3,1.6-11.1,1.5c-1.1,0-2.3-0.1-3.3-0.6c0,0,0,0-0.1,0c-0.8-0.4-1.4-1-1.8-1.7c5.3,0.9,10.9-0.9,14.8-4.6
		c0.5-0.2,1-0.4,1.4-0.7c0.4,0.1,0.8,0.3,1.2,0.5c0.5,0.2,1,0.5,1.4,0.9C284.1,461.7,284.4,462.2,284.4,462.7z"/>
	<path class="st13" d="M283.7,467.7c-0.7,0.9-1.8,1.4-2.9,1.8c-2.2,0.8-4.5,1.4-6.8,1.8c-1.1,0.2-2.3,0.3-3.4,0.1
		c-0.3-0.1-0.6-0.2-0.9-0.3c3.1-1.1,6.3-2.3,9.4-3.4c1.8-0.7,3.7-1.4,5.3-2.5C284.6,466,284.3,467,283.7,467.7L283.7,467.7z"/>
	<path class="st14" d="M269.3,470.9c-1.4-0.8-2.5-2.3-2.7-3.9l0.1-0.1c0,0,0,0,0.1,0c1,0.5,2.2,0.6,3.3,0.6
		c3.7,0.1,7.5-0.4,11.1-1.5c0.8-0.2,1.6-0.5,2.3-1.1c0.2-0.2,0.4-0.4,0.5-0.6l0.1,0.1c0.1,0.2,0.2,0.4,0.3,0.6
		c-1.6,1.1-3.4,1.9-5.3,2.5c-3.1,1.2-6.3,2.3-9.4,3.4C269.6,471,269.4,471,269.3,470.9z"/>
	<path class="st14" d="M283.7,467.7C283.7,467.7,283.7,467.7,283.7,467.7c-2.9,3.7-7,6.6-11.5,8.1c-1.5-1-2.2-2.8-2.8-4.6
		c0.1,0,0.2-0.1,0.3-0.1c0.3,0.1,0.6,0.2,0.9,0.3c1.1,0.2,2.2,0.1,3.4-0.1c2.3-0.4,4.6-0.9,6.8-1.8
		C281.9,469.1,282.9,468.6,283.7,467.7z"/>
	<path class="st13" d="M281.1,459.9c-0.3,0.3-1.4,0.7-1.4,0.7c-0.1,0-0.2,0.1-0.3,0.1c-3.8,1.1-7.7,1.5-11.7,1.6
		c-1.1,0-2.4-0.2-3.3-0.7c-1.1-0.6-1.8-1.8-1.2-3.5c0.9-2.3,6.1-2.3,8.1-2.6c3.1-0.4,6.5-0.3,9.2,1.2c0.5,0.3,1.1,0.7,1.2,1.4
		C281.9,458.8,281.6,459.5,281.1,459.9C281.1,459.9,281.1,459.9,281.1,459.9C280.9,459.9,281.2,460,281.1,459.9z"/>
	<path class="st14" d="M279.4,460.7c0.1,0,0.2-0.1,0.3-0.1c-3.9,3.7-9.5,5.4-14.8,4.6c-0.6-1.1-0.9-2.4-0.5-3.5
		c1,0.5,2.3,0.8,3.3,0.7C271.6,462.2,275.6,461.8,279.4,460.7z"/>
</g>
<g>
	<path class="st25" d="M246.9,311.9c-5.4,0-9.8,4.4-9.8,9.8c0,5.4,4.4,9.8,9.8,9.8c5.4,0,9.8-4.4,9.8-9.8
		C256.7,316.3,252.3,311.9,246.9,311.9z M242.2,325.4c-0.1,0-0.3,0-0.4-0.1c-0.3-0.2-0.3-0.6-0.1-0.9l6.9-8.6
		c0.2-0.3,0.6-0.3,0.9-0.1c0.3,0.2,0.3,0.6,0.1,0.9l-6.9,8.6C242.6,325.3,242.4,325.4,242.2,325.4z M252.5,319.4l-6.9,8.6
		c-0.1,0.2-0.3,0.3-0.5,0.3c-0.1,0-0.3,0-0.4-0.1c-0.3-0.2-0.3-0.6-0.1-0.9l6.9-8.6c0.2-0.3,0.6-0.3,0.9-0.1
		C252.7,318.7,252.7,319.1,252.5,319.4z"/>
	<path class="st26" d="M266.8,338.5l-0.1-0.1l-3.6,3.6l0.1,0.1l1,0.9c0.6,0.6,1.9,0.3,2.9-0.7c1-1,1.3-2.3,0.7-2.9L266.8,338.5
		L266.8,338.5z"/>
	<polygon class="st27" points="265.8,337.4 262.2,341 263,341.9 266.6,338.3 266.5,338.2 266.5,338.2 	"/>
	<path class="st26" d="M246.7,307.8c-7.7,0-14,6.3-14,14c0,7.7,6.3,14,14,14c2.9,0,5.5-0.9,7.7-2.3l7.7,7.6l3.6-3.6l-7.7-7.6
		c1.6-2.3,2.6-5.1,2.6-8.1C260.7,314,254.4,307.8,246.7,307.8z M246.9,331.6c-5.4,0-9.8-4.4-9.8-9.8c0-5.4,4.4-9.8,9.8-9.8
		c5.4,0,9.8,4.4,9.8,9.8C256.7,327.2,252.3,331.6,246.9,331.6z"/>
	<path class="st28" d="M248.6,315.7l-6.9,8.6c-0.2,0.3-0.2,0.7,0.1,0.9c0.1,0.1,0.3,0.1,0.4,0.1c0.2,0,0.4-0.1,0.5-0.3l6.9-8.6
		c0.2-0.3,0.2-0.7-0.1-0.9C249.2,315.4,248.8,315.4,248.6,315.7z"/>
	<path class="st28" d="M251.4,318.6l-6.9,8.6c-0.2,0.3-0.2,0.7,0.1,0.9c0.1,0.1,0.3,0.1,0.4,0.1c0.2,0,0.4-0.1,0.5-0.3l6.9-8.6
		c0.2-0.3,0.2-0.7-0.1-0.9C252.1,318.2,251.7,318.3,251.4,318.6z"/>
</g>
<g>
	<path class="st13" d="M264,339.9c0.3-4.9,0.8-9.8,3.1-14.1c0.8-1.5,1.8-2.9,3.4-3.4c0.1,0,0.2-0.1,0.3,0c0.3,0.1,0.3,0.5,0.3,0.8
		c-0.4,2.9-0.1,5.9,0.3,8.9c1.2,9.1,3.5,18.1,7.7,26.2c-2.6,2.4-5.1,4.9-7.5,7.5c-2.9-1.3-5.8-2.4-8.8-3.3c-2.5-0.8-5.2-1.4-7.8-1.5
		c-2.1-0.1-4.2,0.1-6.2,0.9c-2.4,0.9-4.6,2.5-6.9,3.8c-1.5,0.8-3,1.6-4.7,1.9c-0.4,0.1-0.9,0.1-1.3-0.1c-0.4-0.3-0.5-0.9-0.4-1.4
		c5.4-4.4,11.1-8.3,17.2-11.6l0-0.1c-4.4,0.8-8.7,2.1-12.8,4c-1,0.5-2,1-3,1.5c-2.4,1.3-4.7,2.8-7.2,3.7c-0.6,0.2-1.5,0.3-1.8-0.2
		c-0.1-0.1-0.1-0.2-0.1-0.4c3.1-3.1,7-5.1,10.9-7c5.2-2.4,10.5-4.4,15.9-6c-4.4,0.1-8.7,0.5-13,1.2c-2.3,0.4-4.7,0.8-7,1.3
		c-1.2,0.3-2.5,0.6-3.6,0.2c-0.2-0.1-0.5-0.2-0.6-0.4c-0.4-0.6,0-1.4,0.5-1.9c1.7-1.8,4-3,6.3-4C245.4,342.2,254.7,340.1,264,339.9z
		"/>
	<path class="st14" d="M248.5,361.7c2-0.7,4.1-1,6.2-0.9c-2.2,1.5-4.6,2.7-7.1,3.7c-1.9,0.8-4,1.4-6,1l0,0
		C243.9,364.2,246.1,362.6,248.5,361.7z"/>
	<path class="st14" d="M252.6,354.2l0,0.1c-6.1,3.3-11.8,7.2-17.2,11.6c0-0.2,0.1-0.4,0.1-0.6c0.9-2.6,2.3-5.1,4.2-7.1l0,0
		C243.8,356.3,248.1,354.9,252.6,354.2z"/>
	<path class="st14" d="M241.4,350.9c4.3-0.7,8.7-1.1,13-1.2c-5.4,1.6-10.8,3.7-15.9,6c-3.9,1.8-7.8,3.9-10.9,7c0-0.3,0.1-0.7,0.3-1
		c0.9-1.6,2.1-3,3.4-4.2C234.2,354.8,237.7,352.5,241.4,350.9z"/>
</g>
</svg>
