<svg id="Layer_1" data-name="Layer 1" xmlns="http://www.w3.org/2000/svg" viewBox="0 0 595.28 841.89"><defs><style>.cls-1{fill:#0f9d58;}.cls-2{fill:#4285f4;}.cls-2,.cls-5{stroke:#4285f4;}.cls-2,.cls-3,.cls-4,.cls-5,.cls-6,.cls-7,.cls-9{stroke-miterlimit:10;}.cls-3{fill:#db4437;}.cls-3,.cls-6{stroke:#db4437;}.cls-4,.cls-7{fill:#f4b400;stroke:#f4b400;}.cls-4{stroke-width:1.28px;}.cls-5,.cls-6,.cls-8,.cls-9{fill:#fff;}.cls-9{stroke:#fff;}</style></defs><title>Artboard 5</title><path class="cls-1" d="M344.81,394.74H309.87v11.51h21.28a21,21,0,0,1-19.62,14c-2.95-.08-9-.95-11.76-3.42l-.32-.29-.35-.24c-3.26-2.24-9-8.25-15.29-16l-4.58,14.21c4.12,4.69,8.64,9.34,12.36,12,6.58,5.67,16.91,6.33,19.77,6.4H312a33.71,33.71,0,0,0,32.81-29.86h-.05a3,3,0,0,0,.05-.53Z"/><path class="cls-2" d="M230.77,420.31V433A33.68,33.68,0,1,1,259,380.6l-10.54,7a21,21,0,0,0-17.93-9.31c-.44,0-.87,0-1.31.07s-.78.06-1.17.12l-.17,0a20.9,20.9,0,0,0-5.18,1.47l0-.06a21,21,0,0,0,8.1,40.37Z"/><path class="cls-3" d="M305.26,365.63h0c-1.46,0-13.18.2-20.39,6.41-6.51,4.63-15.45,15.39-20.46,21.75l-2.06,2.43c-7.65,9.78-14.77,17.48-18.58,20.11l-.35.24-.32.28c-2.73,2.47-9,3.42-12.22,3.43l0,12.67h0c1.46,0,13.18-.2,20.39-6.42,6-4.24,13.91-13.55,19.13-20.07L272.5,404c8-10.44,15.83-19,19.86-21.74l.35-.24.31-.29c2.73-2.47,9-3.41,12.24-3.42V365.63Z"/><path class="cls-4" d="M295.58,380.05c9.25-4,20.22-1.22,25.83,7.19l10.72-7.15c-9.42-14.14-28.29-18.44-43.54-10.52"/><path class="cls-2" d="M148.78,468.23a42.49,42.49,0,0,1-2.55,6.8,40.9,40.9,0,0,1-8.4,1.23c-11.31,0-16.35-7.47-16.35-14.24,0-9,7.29-14.94,17.46-14.94a36.85,36.85,0,0,1,8.14,1.23c.36,2.43.68,4.27.94,6.71l-1.32.29c-1.2-4.75-4.13-6.62-8.9-6.62-7.47,0-11.46,6-11.46,12.42,0,8.09,4.95,13.48,11.84,13.48,4.54,0,7-2.44,9.34-6.86Z"/><path class="cls-2" d="M173,468.67c-.29,1.46-1.2,5.59-1.64,6.91H151.19v-1.23c3.75-.26,4.13-.55,4.13-4.3V453.23c0-3.72-.3-4-3.93-4.22v-1.29h11.87V449c-3.46.23-3.87.47-3.87,4.22V469.9c0,2.34.2,3.16,1,3.6a9.56,9.56,0,0,0,4.08.56c2.31,0,3.86-.26,4.86-1.38a11.58,11.58,0,0,0,2.37-4.28Z"/><path class="cls-2" d="M190.71,447.08c7.7,0,14.67,5.62,14.67,14.21,0,9.25-6.94,15-15.26,15s-14.79-6.07-14.79-14.33c0-7.76,5.83-14.85,15.35-14.85Z"/><path class="cls-5" d="M189.74,448.69c-4.92,0-9.61,4-9.61,12.13,0,7.88,4.66,13.82,11,13.82,4.92,0,9.43-3.92,9.43-12.21,0-9-5-13.74-10.75-13.74Z"/><path class="cls-3" d="M238.81,449c-2.55.15-3.66.79-3.84,2.55a66.6,66.6,0,0,0-.26,6.8v3.37c0,5.06-.82,8.78-3.37,11.42a11.21,11.21,0,0,1-8.05,3,11.77,11.77,0,0,1-7.21-2.08c-2.7-2-4-5.25-4-10.4V453.46c0-3.95-.38-4.16-3.83-4.45v-1.29H220V449c-3.42.21-3.8.47-3.8,4.45v9.35c0,7.06,3,10.93,8.29,10.93,6.21,0,8.35-5,8.35-12.1v-3.28a40.1,40.1,0,0,0-.36-6.92c-.23-1.64-1.23-2.22-4.24-2.43v-1.29h10.57Z"/><path class="cls-3" d="M254.43,447.72c5.59,0,9.87,1.14,12.6,3.66a12.58,12.58,0,0,1,3.75,9.23A13.55,13.55,0,0,1,265.27,472c-3.37,2.43-7.85,3.54-13.27,3.54H241.1v-1.23c3.75-.26,4.13-.53,4.13-4.19v-17c0-3.69-.38-3.87-3.75-4.13v-1.32Z"/><path class="cls-6" d="M249.33,469.78c0,3.4,1.49,4.19,4.72,4.19,8.17,0,12.1-6,12.1-12.68,0-4.43-1.73-8.06-4.95-10.08a13.88,13.88,0,0,0-7.8-2,7.38,7.38,0,0,0-3.51.58c-.41.29-.56.82-.56,2.49Z"/><path class="cls-3" d="M315.69,463.83c-2.61.41-2.76.62-2.76,3.23v3.57a17.47,17.47,0,0,0,.3,4c-2.79.64-6.54,1.67-10.2,1.67-10,0-16.64-5.89-16.64-14.42,0-9.84,8.32-14.76,17.23-14.76a38.91,38.91,0,0,1,8.84,1.29c.12,1.49.33,3.86.68,6.91l-1.29.29c-1.06-5.33-4.51-6.91-8.91-6.91-6.71,0-11.69,4.8-11.69,12.63,0,6.18,3.75,13.38,12.34,13.38a9,9,0,0,0,3.78-.76,2.6,2.6,0,0,0,1.46-2.75v-3.52c0-3.16-.26-3.45-4.71-3.81V462.6h11.57Z"/><path class="cls-7" d="M335.67,475.58v-1.23c2.72-.38,3.1-.76,2.52-2.49s-1.41-3.84-2.35-6.3h-9.4c-.73,2-1.32,3.64-1.88,5.33-.93,2.61-.58,3.11,2.73,3.46v1.23h-9.67v-1.23c2.84-.44,3.46-.73,5-4.54l9.2-22.35,1.52-.38c2.82,7.58,5.63,15.2,8.53,22.73,1.41,3.78,2,4.25,4.86,4.54v1.23Z"/><path class="cls-8" d="M331.36,453h-.09c-1.4,3.54-2.78,7.2-4.1,10.66h8Z"/><path class="cls-7" d="M370.91,468.67c-.29,1.46-1.2,5.59-1.64,6.91H349.06v-1.23c3.75-.26,4.13-.55,4.13-4.3V453.23c0-3.72-.3-4-3.93-4.22v-1.29h11.87V449c-3.46.23-3.87.47-3.87,4.22V469.9c0,2.34.2,3.16,1,3.6a9.49,9.49,0,0,0,4.07.56c2.31,0,3.86-.26,4.86-1.38a11.58,11.58,0,0,0,2.37-4.28Z"/><path class="cls-7" d="M394.73,468.67c-.29,1.46-1.2,5.59-1.64,6.91H372.88v-1.23c3.75-.26,4.13-.55,4.13-4.3V453.23c0-3.72-.3-4-3.93-4.22v-1.29H385V449c-3.46.23-3.87.47-3.87,4.22V469.9c0,2.34.2,3.16,1,3.6a9.56,9.56,0,0,0,4.08.56c2.31,0,3.86-.26,4.86-1.38a11.58,11.58,0,0,0,2.37-4.28Z"/><path class="cls-1" d="M419.52,468.64c-.3,1.61-1.15,5.57-1.53,6.94h-21.5v-1.23c3.95-.29,4.33-.7,4.33-4.22V453.35c0-3.93-.38-4.05-3.78-4.34v-1.29h19.87c.06,1.11.23,4,.41,6.36l-1.35.17a12.1,12.1,0,0,0-1.43-3.72c-.65-.93-1.85-1.23-4.87-1.23h-3.25c-1.44,0-1.52.12-1.52,1.41v9.61h4c3.93,0,4.22-.35,4.78-3.25H415v8.41h-1.31c-.62-3.14-.94-3.37-4.78-3.37h-4V470c0,2,.23,3,1.05,3.51s2.49.5,4.48.5c3.2,0,4.52-.29,5.51-1.41a14.87,14.87,0,0,0,2.23-4.13Z"/><path class="cls-1" d="M448.2,476c-.53,0-1,0-1.56-.08-3.54-.18-5.36-1.12-7.38-3.93-1.49-2.08-2.93-4.69-4.25-6.74-.79-1.23-1.55-1.76-3.8-1.76H430v6.68c0,3.61.41,3.93,3.93,4.22v1.23H422v-1.23c3.54-.29,3.95-.61,3.95-4.22v-17c0-3.66-.38-3.9-3.78-4.13v-1.29h11.22c3.31,0,5.45.38,7.12,1.5a6.26,6.26,0,0,1,2.9,5.62c0,3.72-2.4,6-5.54,7.27.77,1.4,2.55,4.21,3.87,6.18a35.2,35.2,0,0,0,3.55,4.51,5.56,5.56,0,0,0,3.07,2Z"/><path class="cls-9" d="M431.94,462c2.19,0,3.66-.35,4.77-1.23a6.08,6.08,0,0,0,2.35-5.28c0-4.6-3-6.29-6.27-6.29a4.35,4.35,0,0,0-2.35.41c-.29.23-.47.73-.47,1.84V462Z"/><path class="cls-1" d="M473.8,449c-3,.32-3.63.88-5.33,3.49-2,2.93-3.37,5.24-5.51,9.14a4.63,4.63,0,0,0-.76,2.81v5.62c0,3.67.32,4,4.43,4.28v1.23H453.88v-1.23c3.87-.26,4.25-.55,4.25-4.28v-5.44a4.65,4.65,0,0,0-.94-2.61c-1.4-2.43-3-5.25-5.51-9.35-1.72-2.9-2.28-3.43-4.89-3.66v-1.29h10.87V449c-3.16.41-3,1-2.23,2.37,1.82,3.28,4,6.8,5.86,10,1.59-2.75,4-7.06,5.22-9.64.94-2,.79-2.43-2.61-2.75v-1.29h9.9Z"/></svg>